<svg id="Flat" height="512" viewBox="0 0 512 512" width="512" xmlns="http://www.w3.org/2000/svg"><path d="m488 384h-240l24-208h192z" fill="#f7b030"/><path d="m416 208a8 8 0 0 1 -8-8v-48a32 32 0 0 0 -64 0v48a8 8 0 0 1 -16 0v-48a48 48 0 0 1 96 0v48a8 8 0 0 1 -8 8z" fill="#bd620e"/><path d="m264 384h-240l24-208h192z" fill="#2d85cc"/><path d="m176 208a8 8 0 0 1 -8-8v-48a32 32 0 0 0 -64 0v48a8 8 0 0 1 -16 0v-48a48 48 0 0 1 96 0v48a8 8 0 0 1 -8 8z" fill="#1261a0"/><path d="m384 432h-257l25-272h208z" fill="#eb423f"/><path d="m304 208a8 8 0 0 1 -8-8v-72a40 40 0 0 0 -80 0v72a8 8 0 0 1 -16 0v-72a56 56 0 0 1 112 0v72a8 8 0 0 1 -8 8z" fill="#962523"/><circle cx="208" cy="232" fill="#962523" r="8"/><circle cx="96" cy="232" fill="#1261a0" r="8"/><circle cx="304" cy="232" fill="#962523" r="8"/><circle cx="416" cy="232" fill="#bd620e" r="8"/></svg>